<svg xmlns="http://www.w3.org/2000/svg" viewBox="0 0 60 60"><defs><style>.a{fill:#fccd01;}</style></defs><title>Move</title><path class="a" d="M35.15,34.55h10.5s0,5.9-5.25,5.9S35.15,34.55,35.15,34.55Z"/><path class="a" d="M35.26,32.58h10.5s.4-8.5.65-11.81C47,13.56,45,7,39.09,7c-5.25,0-5.48,9.72-5.25,11.81C34.5,24.71,35.15,26.68,35.26,32.58Z"/><path class="a" d="M29.09,46.18,18.87,48.54s1.32,5.75,6.44,4.57S29.09,46.18,29.09,46.18Z"/><path class="a" d="M28.54,44.29,18.32,46.65S16,38.46,15,35.29c-2.15-6.91-1.71-13.74,4-15.07,5.11-1.18,7.53,8.24,7.77,10.32C27.52,36.44,27.32,38.51,28.54,44.29Z"/></svg>